<?xml version="1.0" standalone="no"?>
<!DOCTYPE svg PUBLIC "-//W3C//DTD SVG 20010904//EN"
 "http://www.w3.org/TR/2001/REC-SVG-20010904/DTD/svg10.dtd">
<svg version="1.0" xmlns="http://www.w3.org/2000/svg"
 width="522.000000pt" height="522.000000pt" viewBox="0 0 522.000000 522.000000"
 preserveAspectRatio="xMidYMid meet">
<metadata>
Created by potrace 1.14, written by Peter Selinger 2001-2017
</metadata>
<g transform="translate(0.000000,522.000000) scale(0.100000,-0.100000)"
fill="#000000" stroke="none">
<path d="M1594 4678 c16 -57 79 -306 83 -327 2 -14 6 -27 8 -31 2 -3 -29 -23
-68 -44 -107 -58 -188 -112 -179 -121 4 -5 2 -5 -4 -2 -19 11 -199 -135 -303
-245 -30 -32 -57 -58 -61 -58 -3 0 -26 19 -51 43 -25 23 -97 89 -159 147 -62
58 -132 122 -154 143 -38 36 -41 37 -48 17 -23 -63 -28 -339 -8 -487 14 -109
44 -262 64 -327 16 -52 16 -52 -59 -231 -21 -49 -64 -204 -81 -290 -64 -326
-53 -691 32 -990 78 -277 213 -543 383 -755 141 -176 458 -455 492 -434 7 4 9
3 6 -3 -4 -6 -1 -14 6 -17 6 -3 30 -17 52 -31 80 -50 245 -126 256 -119 7 4 9
3 6 -3 -8 -13 50 -36 66 -26 6 3 7 1 3 -5 -7 -11 12 -16 51 -15 7 1 11 -3 8
-7 -4 -6 49 -24 136 -44 9 -3 32 -9 50 -14 19 -5 46 -8 61 -8 14 1 24 -2 22
-6 -3 -4 5 -9 18 -9 13 -1 41 -3 63 -4 22 -2 48 -6 58 -10 9 -4 29 -5 42 -3
14 3 25 2 25 -2 0 -4 74 -7 165 -7 91 0 165 3 165 6 0 3 19 6 43 7 69 1 162
15 165 25 2 5 8 7 13 3 12 -7 119 17 119 27 0 5 6 6 14 3 16 -6 202 56 294 97
34 16 64 29 66 29 2 0 44 22 94 50 59 32 103 50 125 50 49 0 178 35 234 64
177 91 310 270 348 469 11 55 27 94 71 167 45 75 165 311 163 323 0 1 2 9 5
17 34 95 66 203 62 208 -3 3 -1 11 5 18 6 8 9 21 5 29 -3 8 0 15 5 15 6 0 9 9
6 20 -3 11 -2 20 3 20 10 0 34 154 27 180 -3 11 -2 18 3 15 11 -7 17 72 7 92
-7 11 -6 14 2 9 6 -4 11 -2 11 3 0 6 -6 11 -12 11 -10 0 -10 2 -1 8 24 15 5
442 -19 442 -5 0 -7 4 -4 8 3 5 1 33 -4 63 -6 30 -13 68 -16 84 -2 17 -9 41
-13 55 -5 14 -17 52 -26 85 -26 87 -88 242 -139 344 -39 76 -159 266 -206 325
-99 124 -275 299 -372 369 -24 17 -45 34 -48 37 -17 18 -161 106 -250 153
-200 106 -445 187 -638 212 -20 3 -48 8 -62 11 -44 10 -382 12 -450 3 -35 -5
-83 -11 -105 -14 -23 -2 -73 -11 -111 -20 -38 -9 -76 -18 -84 -19 -8 -2 -46
18 -85 44 -100 67 -197 120 -296 163 -47 20 -90 37 -94 37 -4 0 -4 -10 -1 -22z"/>
</g>
</svg>
